<?xml version="1.0" encoding="utf-8"?>
<!-- Generator: Adobe Illustrator 21.0.1, SVG Export Plug-In . SVG Version: 6.00 Build 0)  -->
<svg version="1.1" id="Layer_1" xmlns="http://www.w3.org/2000/svg" xmlns:xlink="http://www.w3.org/1999/xlink" x="0px" y="0px"
	 viewBox="0 0 486.4 137.1" style="enable-background:new 0 0 486.4 137.1;" xml:space="preserve">
<style type="text/css">
	.st0{clip-path:url(#SVGID_2_);}
	.st1{fill:url(#SVGID_3_);}
	.st2{fill:#9C0A0E;}
	.st3{fill:url(#SVGID_4_);}
	.st4{clip-path:url(#SVGID_6_);}
	.st5{fill:url(#SVGID_7_);}
	.st6{fill:url(#SVGID_8_);}
	.st7{fill:url(#SVGID_9_);}
	.st8{fill:url(#SVGID_10_);}
</style>
<g>
	<defs>
		<rect id="SVGID_1_" x="1338" y="-318.4" width="700" height="700"/>
	</defs>
	<clipPath id="SVGID_2_">
		<use xlink:href="#SVGID_1_"  style="overflow:visible;"/>
	</clipPath>
	<g class="st0">
		<g>
			
				<linearGradient id="SVGID_3_" gradientUnits="userSpaceOnUse" x1="2075.3633" y1="86.0877" x2="1489.2358" y2="-148.0761" gradientTransform="matrix(0.9819 0.1893 -0.1893 0.9819 -16.3839 -328.8346)">
				<stop  offset="0" style="stop-color:#BE1E2D"/>
				<stop  offset="0" style="stop-color:#BE1E2D"/>
				<stop  offset="0.9787" style="stop-color:#BE1E2D;stop-opacity:0.7064"/>
				<stop  offset="1" style="stop-color:#BE1E2D;stop-opacity:0.7"/>
			</linearGradient>
			<path class="st1" d="M2127.9,141.3c-55.3,8.6-110,6.7-159.5-14.4c-47.6-20.2-87.3-55.7-124.1-92.5
				C1798.8-11,1756.6-60,1711.8-106c-44.9-46.1-93.5-82.7-154.5-102c-70.5-22.2-148.1-18.3-222.6,8.1c-3.1,1.1-1.8,6,1.3,5
				c66-22.2,133.6-25.7,197-10.4c63.7,15.3,111.1,52.1,156.9,99c45.6,46.6,88.5,107.7,134.1,154.3c36.1,37,59.2,63.2,105.4,85.4
				c60.4,29,135.9,27.1,198.1,11.9C2130.9,144.5,2131.6,140.7,2127.9,141.3z"/>
			<g>
				<g>
					<path class="st2" d="M2024.4,50c1.1,3.2-0.5,6.8-3.8,7.9c-3.2,1.1-6.8-0.5-7.9-3.8c-1.1-3.2,0.5-6.8,3.8-7.9
						C2019.7,45.1,2023.2,46.8,2024.4,50z"/>
				</g>
				<g>
					<path class="st2" d="M1993.3,61.6c1.5,4.3-0.7,8.9-5,10.4c-4.3,1.5-8.9-0.7-10.4-5c-1.5-4.2,0.7-8.9,5-10.4
						C1987.2,55.1,1991.8,57.4,1993.3,61.6z"/>
				</g>
				<g>
					<path class="st2" d="M1961.5,73.5c1.7,4.9-0.8,10.2-5.7,11.9c-4.9,1.7-10.2-0.8-11.9-5.7c-1.7-4.9,0.8-10.2,5.7-11.9
						C1954.4,66.1,1959.8,68.7,1961.5,73.5z"/>
				</g>
				<g>
					<path class="st2" d="M1928.1,83.1c1.8,5-0.9,10.6-5.9,12.4c-5,1.8-10.6-0.8-12.4-5.9c-1.8-5,0.8-10.6,5.9-12.4
						C1920.7,75.4,1926.3,78.1,1928.1,83.1z"/>
				</g>
				<g>
					<path class="st2" d="M1894.1,92.3c1.8,5-0.8,10.5-5.9,12.3c-5,1.8-10.5-0.9-12.3-5.9c-1.8-5,0.9-10.5,5.9-12.3
						C1886.8,84.6,1892.3,87.3,1894.1,92.3z"/>
				</g>
				<g>
					<path class="st2" d="M1859.3,97.6c1.8,5-0.8,10.4-5.8,12.2c-5,1.8-10.4-0.8-12.2-5.8c-1.8-5,0.8-10.4,5.8-12.2
						C1852.1,90,1857.6,92.6,1859.3,97.6z"/>
				</g>
				<g>
					<path class="st2" d="M1824.3,101.7c1.7,4.9-0.8,10.3-5.8,12.1c-4.9,1.8-10.3-0.8-12.1-5.8c-1.7-4.9,0.8-10.3,5.8-12.1
						C1817.2,94.2,1822.6,96.7,1824.3,101.7z"/>
				</g>
				<g>
					<path class="st2" d="M1789.2,98.8c1.7,4.9-0.8,10.2-5.7,12c-4.9,1.7-10.3-0.8-12-5.7c-1.7-4.9,0.8-10.2,5.7-12
						C1782.2,91.4,1787.5,93.9,1789.2,98.8z"/>
				</g>
				<g>
					<path class="st2" d="M1754.7,93.2c1.7,4.8-0.8,10.1-5.7,11.9c-4.8,1.7-10.1-0.8-11.9-5.7c-1.7-4.8,0.8-10.1,5.7-11.9
						C1747.7,85.9,1753,88.4,1754.7,93.2z"/>
				</g>
				<g>
					<path class="st2" d="M1721.6,81c1.7,4.7-0.8,9.9-5.5,11.6c-4.7,1.7-9.9-0.8-11.6-5.5c-1.7-4.7,0.8-9.9,5.5-11.6
						C1714.7,73.8,1719.9,76.3,1721.6,81z"/>
				</g>
				<g>
					<path class="st2" d="M1690.8,64.2c1.6,4.5-0.8,9.5-5.3,11.1c-4.6,1.6-9.5-0.8-11.2-5.3c-1.6-4.5,0.8-9.5,5.3-11.2
						C1684.2,57.2,1689.2,59.6,1690.8,64.2z"/>
				</g>
				<g>
					<path class="st2" d="M1661.8,43.8c1.5,4.4-0.7,9.1-5.1,10.7c-4.4,1.5-9.1-0.7-10.7-5.1c-1.6-4.4,0.7-9.1,5.1-10.7
						C1655.5,37.2,1660.3,39.5,1661.8,43.8z"/>
				</g>
				<g>
					<path class="st2" d="M1636.7,19.3c1.5,4.2-0.7,8.7-4.9,10.2c-4.2,1.5-8.7-0.7-10.2-4.9c-1.5-4.2,0.7-8.7,4.9-10.2
						C1630.6,12.9,1635.2,15.1,1636.7,19.3z"/>
				</g>
				<g>
					<path class="st2" d="M1612.8-6.7c1.4,4-0.7,8.3-4.6,9.7c-4,1.4-8.3-0.7-9.8-4.6c-1.4-4,0.7-8.3,4.6-9.7
						C1607-12.8,1611.4-10.7,1612.8-6.7z"/>
				</g>
				<g>
					<path class="st2" d="M1591.9-34.9c1.4,3.8-0.6,8-4.5,9.4c-3.8,1.4-8-0.6-9.4-4.5c-1.4-3.8,0.6-8,4.5-9.4
						C1586.3-40.7,1590.5-38.7,1591.9-34.9z"/>
				</g>
				<g>
					<path class="st2" d="M1574.1-65.3c1.3,3.7-0.6,7.8-4.3,9.1c-3.7,1.3-7.8-0.6-9.1-4.3c-1.3-3.7,0.6-7.8,4.3-9.1
						C1568.7-70.9,1572.8-69,1574.1-65.3z"/>
				</g>
				<g>
					<path class="st2" d="M1557.3-96.2c1.3,3.6-0.6,7.5-4.2,8.8c-3.6,1.3-7.5-0.6-8.8-4.2c-1.3-3.6,0.6-7.5,4.2-8.8
						C1552.1-101.6,1556-99.7,1557.3-96.2z"/>
				</g>
				<g>
					<path class="st2" d="M1540.2-126.9c1.2,3.5-0.6,7.3-4,8.5c-3.5,1.2-7.3-0.6-8.5-4.1c-1.2-3.5,0.6-7.3,4.1-8.5
						C1535.1-132.2,1539-130.4,1540.2-126.9z"/>
				</g>
				<g>
					<path class="st2" d="M1520.8-156.3c1.2,3.4-0.6,7-3.9,8.2c-3.3,1.2-7-0.6-8.2-3.9c-1.2-3.4,0.6-7,3.9-8.2
						C1515.9-161.4,1519.6-159.7,1520.8-156.3z"/>
				</g>
				<g>
					<path class="st2" d="M1498.9-183.8c1.1,3.2-0.6,6.8-3.8,7.9c-3.2,1.2-6.8-0.5-7.9-3.8c-1.1-3.2,0.5-6.8,3.8-7.9
						C1494.2-188.7,1497.8-187,1498.9-183.8z"/>
				</g>
				<g>
					<path class="st2" d="M1474.6-209.2c1.1,3.1-0.5,6.4-3.6,7.5c-3.1,1.1-6.4-0.5-7.5-3.6c-1.1-3.1,0.5-6.4,3.6-7.5
						C1470.1-213.9,1473.5-212.3,1474.6-209.2z"/>
				</g>
				<g>
					<path class="st2" d="M1446.4-230.6c1,2.8-0.5,5.9-3.3,6.9c-2.8,1-5.9-0.5-6.9-3.3c-1-2.8,0.5-5.9,3.3-6.9
						C1442.3-234.9,1445.4-233.4,1446.4-230.6z"/>
				</g>
				<g>
					<path class="st2" d="M1415.5-247.5c0.9,2.6-0.4,5.4-3,6.3c-2.6,0.9-5.4-0.4-6.3-3c-0.9-2.6,0.4-5.4,3-6.3
						C1411.7-251.5,1414.6-250.1,1415.5-247.5z"/>
				</g>
				<g>
					<path class="st2" d="M1382.9-262.1c0.8,2.2-0.4,4.6-2.6,5.4c-2.2,0.8-4.6-0.4-5.4-2.6c-0.8-2.2,0.4-4.6,2.6-5.4
						C1379.7-265.4,1382.1-264.2,1382.9-262.1z"/>
				</g>
				<g>
					<path class="st2" d="M1348-269.3c0.7,1.9-0.3,4-2.2,4.7c-1.9,0.7-4-0.3-4.7-2.2c-0.7-1.9,0.3-4,2.2-4.7
						C1345.2-272.2,1347.3-271.2,1348-269.3z"/>
				</g>
				<g>
					<path class="st2" d="M1313.1-276.2c0.6,1.7-0.3,3.5-1.9,4.1c-1.7,0.6-3.5-0.3-4.1-1.9c-0.6-1.7,0.3-3.5,2-4.1
						C1310.7-278.8,1312.5-277.9,1313.1-276.2z"/>
				</g>
			</g>
			
				<linearGradient id="SVGID_4_" gradientUnits="userSpaceOnUse" x1="1581.984" y1="-257.2079" x2="1843.4498" y2="116.315" gradientTransform="matrix(0.9819 0.1893 -0.1893 0.9819 -16.3839 -328.8346)">
				<stop  offset="0" style="stop-color:#BE1E2D"/>
				<stop  offset="0.1397" style="stop-color:#B51C2A"/>
				<stop  offset="0.4037" style="stop-color:#9C1421"/>
				<stop  offset="0.761" style="stop-color:#75030E"/>
				<stop  offset="1" style="stop-color:#5A0000"/>
			</linearGradient>
			<path class="st3" d="M2109.2,64.3c-34.6,15.5-91,33.8-130.2,48.3c-75,27.6-160.6,42.9-235.6,7.3c-33.6-15.9-62.8-41-82.2-72.7
				c-19.5-31.9-31.7-57.8-43.6-93c-12.8-37.9-30.9-77-45.5-114.2c-12.3-31.3-26.9-58.3-49.7-83.4c-77.9-85.8-203.9-62.3-300.7-27.7
				c-1.9,0.7-0.8,3.6,1.1,3c78.7-26.8,174.1-47.4,251.3-4.9c66.4,36.6,90,113.7,112.3,181.2c12.4,37.5,24,75.4,39.2,111.9
				c12.2,29.4,27.2,59.3,50.7,81.4c29,27.2,63.4,46.6,102.1,55.8c37.6,8.9,77.2,7.2,115,0.4c55.1-10,172.8-62.8,217.5-89.9
				C2112.6,66.4,2111.1,63.4,2109.2,64.3z"/>
		</g>
		<g>
			<path d="M1387.2,232.4h-10.7v-14.2h50.8c20.5,0,34.8,12.9,34.8,34.2c0,19.5-12.7,29-21,30.9v0.3c0,0,3,1.5,4.9,5.3l14,27.9
				c1.6,3.5,4.3,3.8,8.3,3.8h2.1v14.2h-8.1c-9.1,0-12.4-1.2-16.2-8.7l-15.8-31.4c-3-5.4-5.1-6.3-11.6-6.3h-15.2v46.4h-16.5V232.4z
				 M1425.2,274.2c12.5,0,20-8.1,20-21.1c0-13-7.4-20.6-19.6-20.6h-21.8v41.8H1425.2z"/>
			<path d="M1520.6,249.3c23.4,0,36,17.5,36,39.1c0,2.1-0.5,6.6-0.5,6.6h-60.9c1,17.8,13.9,27.9,28.7,27.9c14.4,0,24.4-9.7,24.4-9.7
				l6.9,11.4c0,0-12.4,12.2-32.2,12.2c-26.4,0-44.4-19-44.4-43.7C1478.7,266.4,1496.8,249.3,1520.6,249.3z M1540.1,283.3
				c-0.5-13.9-9.2-21.3-19.6-21.3c-12.2,0-22.1,7.4-24.6,21.3H1540.1z"/>
			<path d="M1609.4,249.3c19.3,0,25.7,12.9,25.7,12.9h0.3c0,0-0.3-2.5-0.3-5.6v-21c0-2.5-1.3-3.6-3.6-3.6h-6.8v-13.7h15.8
				c7.4,0,10.6,3.1,10.6,10.6v88.6c0,2.5,1.3,3.6,3.6,3.6h6.8v13.7h-15.3c-7.3,0-10.2-3.3-10.2-8.9c0-2.5,0.2-4.3,0.2-4.3h-0.3
				c0,0-6.9,15.2-27.4,15.2c-22.6,0-36.8-17.8-36.8-43.7C1571.6,266.4,1587.3,249.3,1609.4,249.3z M1635.6,292.8
				c0-14.9-7.8-29.7-23.8-29.7c-13,0-23.9,10.9-23.9,29.9c0,18.2,9.7,29.9,23.6,29.9C1623.9,322.9,1635.6,314.1,1635.6,292.8z"/>
			<path class="st2" d="M1676.1,268.3c-0.8-2.6-2.5-3.3-5.1-3.3h-2.3v-13.7h10.1c7.4,0,10.2,1.8,12.4,8.9l14.8,49.7
				c1.3,4.3,2,8.9,2,8.9h0.3c0,0,1-4.6,2.3-8.9l18-58.3h14.7l18.2,58.3c1.3,4.3,2.1,8.9,2.1,8.9h0.3c0,0,0.7-4.6,2-8.9l14.7-49.7
				c2.1-7.1,5.1-8.9,12.5-8.9h9.9v13.7h-2.3c-2.6,0-4.3,0.7-5.1,3.3l-22,66.5h-18l-17.3-53.6c-1.3-4.3-2.3-9.1-2.3-9.1h-0.3
				c0,0-1,4.8-2.3,9.1l-17.2,53.6H1698L1676.1,268.3z"/>
			<path class="st2" d="M1821.2,268.6c0-2.5-1.3-3.6-3.6-3.6h-6.8v-13.7h15.7c7.4,0,10.6,3.1,10.6,10.6v55.6c0,2.5,1.3,3.6,3.6,3.6
				h6.8v13.7h-15.7c-7.4,0-10.6-3.1-10.6-10.6V268.6z M1821.5,218.2h14.4v16.7h-14.4V218.2z"/>
			<path class="st2" d="M1867.4,268.6c0-2.5-1.3-3.6-3.6-3.6h-6.8v-13.7h15.2c7.3,0,10.7,3,10.7,9.7v5.3c0,3.3-0.3,5.8-0.3,5.8h0.3
				c4-12.2,13.5-21.8,26.4-21.8c2.1,0,4.3,0.3,4.3,0.3v15.8c0,0-2.1-0.5-4.8-0.5c-10.2,0-19.6,7.3-23.4,19.6c-1.5,4.8-2,9.9-2,15
				v34.2h-16V268.6z"/>
			<path class="st2" d="M1963.4,249.3c23.4,0,36,17.5,36,39.1c0,2.1-0.5,6.6-0.5,6.6H1938c1,17.8,13.9,27.9,28.7,27.9
				c14.4,0,24.4-9.7,24.4-9.7l6.9,11.4c0,0-12.4,12.2-32.2,12.2c-26.4,0-44.4-19-44.4-43.7C1921.5,266.4,1939.7,249.3,1963.4,249.3z
				 M1982.9,283.3c-0.5-13.9-9.2-21.3-19.6-21.3c-12.2,0-22.1,7.4-24.6,21.3H1982.9z"/>
		</g>
	</g>
</g>
<g>
	<defs>
		<rect id="SVGID_5_" x="3241.5" y="-318.4" width="700" height="700"/>
	</defs>
	<clipPath id="SVGID_6_">
		<use xlink:href="#SVGID_5_"  style="overflow:visible;"/>
	</clipPath>
	<g class="st4">
		<g>
			
				<linearGradient id="SVGID_7_" gradientUnits="userSpaceOnUse" x1="3962.9412" y1="-78.6949" x2="3386.7969" y2="-308.8703" gradientTransform="matrix(0.9921 0.1255 -0.1255 0.9921 -38.0619 -105.9967)">
				<stop  offset="0" style="stop-color:#BE1E2D"/>
				<stop  offset="0" style="stop-color:#BE1E2D"/>
				<stop  offset="0.9787" style="stop-color:#BE1E2D;stop-opacity:0.7064"/>
				<stop  offset="1" style="stop-color:#BE1E2D;stop-opacity:0.7"/>
			</linearGradient>
			<path class="st5" d="M4023.4,298.3c-53.7,12-107.5,13.5-157.4-4c-48-16.8-89.2-49.1-127.7-82.9c-47.4-41.6-91.9-87-138.8-129.3
				c-47-42.3-97-75.2-158.1-90.2c-70.5-17.3-146.4-8.5-217.9,22.1c-3,1.3-1.4,6,1.6,4.8c63.3-25.9,129.4-33.7,192.6-22.8
				c63.4,11,112.3,44,160.2,87.2c47.6,42.8,93.7,100,141.3,142.9c37.8,34,62.1,58.3,108.8,77.1c61.1,24.7,135,17.9,195.1-0.9
				C4026.6,301.2,4027,297.5,4023.4,298.3z"/>
			<g>
				<g>
					<path class="st2" d="M3916.1,215.3c1.3,3.1-0.1,6.7-3.2,8c-3.1,1.3-6.7-0.1-8-3.2c-1.3-3.1,0.1-6.7,3.2-8
						C3911.2,210.8,3914.8,212.3,3916.1,215.3z"/>
				</g>
				<g>
					<path class="st2" d="M3886.4,228.7c1.8,4.1-0.1,8.8-4.2,10.6c-4.1,1.8-8.8-0.1-10.5-4.2c-1.7-4.1,0.1-8.8,4.2-10.5
						C3879.9,222.8,3884.6,224.6,3886.4,228.7z"/>
				</g>
				<g>
					
						<ellipse transform="matrix(0.9191 -0.394 0.394 0.9191 214.2183 1535.6133)" class="st2" cx="3847.5" cy="246" rx="9.2" ry="9.2"/>
				</g>
				<g>
					<path class="st2" d="M3823.7,254c2.1,4.8-0.2,10.4-5,12.5c-4.8,2.1-10.4-0.2-12.5-5c-2.1-4.8,0.2-10.4,5-12.5
						C3816,246.9,3821.6,249.1,3823.7,254z"/>
				</g>
				<g>
					<path class="st2" d="M3791,265.1c2.1,4.8-0.2,10.4-5,12.5c-4.8,2.1-10.4-0.2-12.5-5c-2.1-4.8,0.2-10.4,5-12.5
						C3783.3,258.1,3788.9,260.3,3791,265.1z"/>
				</g>
				<g>
					<path class="st2" d="M3757.2,272.5c2,4.8-0.1,10.3-4.9,12.3c-4.8,2.1-10.3-0.2-12.4-4.9c-2-4.8,0.2-10.3,4.9-12.4
						C3749.6,265.5,3755.2,267.7,3757.2,272.5z"/>
				</g>
				<g>
					<path class="st2" d="M3723.1,278.8c2,4.7-0.2,10.2-4.9,12.2c-4.7,2-10.2-0.2-12.2-4.9c-2-4.7,0.2-10.2,4.9-12.2
						C3715.6,271.8,3721.1,274,3723.1,278.8z"/>
				</g>
				<g>
					<path class="st2" d="M3688.5,278.2c2,4.7-0.1,10.1-4.8,12.1c-4.7,2-10.1-0.2-12.1-4.8c-2-4.7,0.2-10.1,4.8-12.1
						C3681.1,271.3,3686.5,273.5,3688.5,278.2z"/>
				</g>
				<g>
					<path class="st2" d="M3654.3,274.9c2,4.6-0.2,10-4.8,12c-4.6,2-10-0.2-12-4.8c-2-4.6,0.2-10,4.8-12
						C3646.9,268.1,3652.3,270.3,3654.3,274.9z"/>
				</g>
				<g>
					<path class="st2" d="M3621,265c2,4.5-0.1,9.8-4.7,11.8c-4.5,2-9.8-0.1-11.7-4.7c-2-4.5,0.1-9.8,4.7-11.8
						C3613.8,258.3,3619.1,260.5,3621,265z"/>
				</g>
				<g>
					<path class="st2" d="M3589.8,250.4c1.9,4.4-0.1,9.4-4.5,11.3c-4.4,1.9-9.4-0.1-11.3-4.5c-1.9-4.4,0.2-9.4,4.5-11.3
						C3582.8,244.1,3587.9,246.1,3589.8,250.4z"/>
				</g>
				<g>
					<path class="st2" d="M3560.1,232.4c1.8,4.2-0.1,9-4.3,10.8c-4.2,1.8-9-0.1-10.8-4.3c-1.8-4.2,0.1-9,4.3-10.8
						C3553.4,226.3,3558.3,228.2,3560.1,232.4z"/>
				</g>
				<g>
					<path class="st2" d="M3533.8,209.9c1.7,4-0.1,8.6-4.1,10.3c-4,1.7-8.6-0.1-10.3-4.1c-1.7-4,0.1-8.6,4.1-10.3
						C3527.5,204,3532.1,205.9,3533.8,209.9z"/>
				</g>
				<g>
					<path class="st2" d="M3508.8,185.9c1.6,3.8-0.1,8.2-3.9,9.8c-3.8,1.6-8.2-0.1-9.9-3.9c-1.6-3.8,0.1-8.2,3.9-9.9
						C3502.7,180.3,3507.1,182.1,3508.8,185.9z"/>
				</g>
				<g>
					<path class="st2" d="M3486.4,159.5c1.6,3.7-0.1,7.9-3.8,9.5c-3.7,1.6-7.9-0.1-9.5-3.8c-1.6-3.7,0.1-7.9,3.8-9.5
						C3480.6,154.2,3484.9,155.9,3486.4,159.5z"/>
				</g>
				<g>
					<path class="st2" d="M3467.1,130.9c1.5,3.6-0.1,7.7-3.7,9.2c-3.5,1.5-7.7-0.1-9.2-3.7c-1.5-3.6,0.1-7.7,3.7-9.2
						C3461.4,125.7,3465.5,127.4,3467.1,130.9z"/>
				</g>
				<g>
					<path class="st2" d="M3448.6,101.7c1.5,3.4-0.1,7.4-3.5,8.9c-3.4,1.5-7.4-0.1-8.9-3.6c-1.5-3.4,0.1-7.4,3.6-8.9
						C3443.2,96.6,3447.1,98.2,3448.6,101.7z"/>
				</g>
				<g>
					<path class="st2" d="M3429.9,72.6c1.4,3.3-0.1,7.2-3.4,8.6c-3.3,1.4-7.2-0.1-8.6-3.4c-1.4-3.3,0.1-7.2,3.4-8.6
						C3424.6,67.7,3428.5,69.2,3429.9,72.6z"/>
				</g>
				<g>
					<path class="st2" d="M3409,45c1.4,3.2-0.1,6.9-3.3,8.3c-3.2,1.4-6.9-0.1-8.3-3.3c-1.4-3.2,0.1-6.9,3.3-8.3
						C3403.9,40.3,3407.6,41.8,3409,45z"/>
				</g>
				<g>
					<path class="st2" d="M3385.8,19.4c1.3,3.1-0.1,6.7-3.2,8c-3.1,1.3-6.7-0.1-8-3.2c-1.3-3.1,0.1-6.7,3.2-8
						C3380.9,14.9,3384.4,16.3,3385.8,19.4z"/>
				</g>
				<g>
					<path class="st2" d="M3360.3-4c1.3,2.9-0.1,6.3-3,7.6c-2.9,1.2-6.3-0.1-7.6-3c-1.3-2.9,0.1-6.3,3-7.6
						C3355.7-8.3,3359-6.9,3360.3-4z"/>
				</g>
				<g>
					<path class="st2" d="M3331.3-23.2c1.2,2.7-0.1,5.8-2.8,7c-2.7,1.1-5.8-0.1-7-2.8c-1.2-2.7,0.1-5.8,2.8-7
						C3327-27.2,3330.1-25.9,3331.3-23.2z"/>
				</g>
				<g>
					<path class="st2" d="M3299.9-37.8c1.1,2.5-0.1,5.3-2.6,6.4c-2.5,1.1-5.3-0.1-6.4-2.6c-1.1-2.5,0.1-5.3,2.6-6.4
						C3295.9-41.4,3298.8-40.3,3299.9-37.8z"/>
				</g>
				<g>
					<path class="st2" d="M3267-50c0.9,2.1-0.1,4.5-2.2,5.4c-2.1,0.9-4.5-0.1-5.4-2.2c-0.9-2.1,0.1-4.5,2.2-5.4
						C3263.6-53.1,3266.1-52.1,3267-50z"/>
				</g>
				<g>
					<path class="st2" d="M3232.3-54.8c0.8,1.8-0.1,4-1.9,4.7c-1.8,0.8-4-0.1-4.7-1.9c-0.8-1.8,0.1-4,1.9-4.7
						C3229.4-57.5,3231.5-56.7,3232.3-54.8z"/>
				</g>
				<g>
					<path class="st2" d="M3197.7-59.5c0.7,1.6,0,3.4-1.6,4.1c-1.6,0.7-3.4-0.1-4.1-1.6c-0.7-1.6,0.1-3.4,1.7-4.1
						C3195.1-61.8,3197-61.1,3197.7-59.5z"/>
				</g>
			</g>
			
				<linearGradient id="SVGID_8_" gradientUnits="userSpaceOnUse" x1="3477.9663" y1="-416.1324" x2="3734.9695" y2="-48.9849" gradientTransform="matrix(0.9921 0.1255 -0.1255 0.9921 -38.0619 -105.9967)">
				<stop  offset="0" style="stop-color:#BE1E2D"/>
				<stop  offset="0.1397" style="stop-color:#B51C2A"/>
				<stop  offset="0.4037" style="stop-color:#9C1421"/>
				<stop  offset="0.761" style="stop-color:#75030E"/>
				<stop  offset="1" style="stop-color:#5A0000"/>
			</linearGradient>
			<path class="st6" d="M4000.2,224c-33,17.4-87.1,39-124.7,55.6c-71.8,31.8-154.8,52.3-230.7,22.1c-33.9-13.5-64.2-36.2-85.3-66.1
				c-21.2-30.1-34.8-54.7-48.7-88.5c-15-36.3-35.2-73.6-51.9-109.2c-14-30-30-55.4-54.1-78.7c-81.9-79.2-204-48.1-296.7-8
				c-1.8,0.8-0.6,3.6,1.3,2.8c75.5-31.3,167.8-57.6,246.2-20.8c67.5,31.7,95.6,105.8,121.7,170.6c14.6,36,28.3,72.4,45.6,107.3
				c13.9,28.1,30.4,56.5,54.9,76.6c30.1,24.8,65.2,41.6,103.7,48.2c37.5,6.4,76.2,2.2,112.8-6.9c53.5-13.3,165.6-72.6,207.6-102
				C4003.7,225.9,4002,223,4000.2,224z"/>
		</g>
		<g>
			<path d="M3290.7-245H3280v-14.2h50.8c20.5,0,34.8,12.9,34.8,34.2c0,19.5-12.7,29-21,30.9v0.3c0,0,3,1.5,4.9,5.3l14,27.9
				c1.6,3.5,4.3,3.8,8.3,3.8h2.1v14.2h-8.1c-9.1,0-12.4-1.2-16.2-8.7l-15.8-31.4c-3-5.4-5.1-6.3-11.6-6.3h-15.2v46.4h-16.5V-245z
				 M3328.7-203.3c12.5,0,20-8.1,20-21.1c0-13-7.4-20.6-19.6-20.6h-21.8v41.8H3328.7z"/>
			<path d="M3424.1-228.2c23.4,0,36,17.5,36,39.1c0,2.1-0.5,6.6-0.5,6.6h-60.9c1,17.8,13.9,27.9,28.7,27.9c14.4,0,24.4-9.7,24.4-9.7
				l6.9,11.4c0,0-12.4,12.2-32.2,12.2c-26.4,0-44.4-19-44.4-43.7C3382.2-211,3400.3-228.2,3424.1-228.2z M3443.6-194.2
				c-0.5-13.9-9.2-21.3-19.6-21.3c-12.2,0-22.1,7.4-24.6,21.3H3443.6z"/>
			<path d="M3512.9-228.2c19.3,0,25.7,12.9,25.7,12.9h0.3c0,0-0.3-2.5-0.3-5.6v-21c0-2.5-1.3-3.6-3.6-3.6h-6.8v-13.7h15.8
				c7.4,0,10.6,3.1,10.6,10.6v88.6c0,2.5,1.3,3.6,3.6,3.6h6.8v13.7h-15.3c-7.3,0-10.2-3.3-10.2-8.9c0-2.5,0.2-4.3,0.2-4.3h-0.3
				c0,0-6.9,15.2-27.4,15.2c-22.6,0-36.8-17.8-36.8-43.7C3475.1-211,3490.8-228.2,3512.9-228.2z M3539.1-184.6
				c0-14.9-7.8-29.7-23.8-29.7c-13,0-23.9,10.9-23.9,29.9c0,18.2,9.7,29.9,23.6,29.9C3527.4-154.6,3539.1-163.3,3539.1-184.6z"/>
			<path class="st2" d="M3579.6-209.2c-0.8-2.6-2.5-3.3-5.1-3.3h-2.3v-13.7h10.1c7.4,0,10.2,1.8,12.4,8.9l14.8,49.7
				c1.3,4.3,2,8.9,2,8.9h0.3c0,0,1-4.6,2.3-8.9l18-58.3h14.7l18.2,58.3c1.3,4.3,2.1,8.9,2.1,8.9h0.3c0,0,0.7-4.6,2-8.9l14.7-49.7
				c2.1-7.1,5.1-8.9,12.5-8.9h9.9v13.7h-2.3c-2.6,0-4.3,0.7-5.1,3.3l-22,66.5h-18l-17.3-53.6c-1.3-4.3-2.3-9.1-2.3-9.1h-0.3
				c0,0-1,4.8-2.3,9.1l-17.2,53.6h-18.2L3579.6-209.2z"/>
			<path class="st2" d="M3724.7-208.9c0-2.5-1.3-3.6-3.6-3.6h-6.8v-13.7h15.7c7.4,0,10.6,3.1,10.6,10.6v55.6c0,2.5,1.3,3.6,3.6,3.6
				h6.8v13.7h-15.7c-7.4,0-10.6-3.1-10.6-10.6V-208.9z M3725-259.2h14.4v16.7H3725V-259.2z"/>
			<path class="st2" d="M3770.9-208.9c0-2.5-1.3-3.6-3.6-3.6h-6.8v-13.7h15.2c7.3,0,10.7,3,10.7,9.7v5.3c0,3.3-0.3,5.8-0.3,5.8h0.3
				c4-12.2,13.5-21.8,26.4-21.8c2.1,0,4.3,0.3,4.3,0.3v15.8c0,0-2.1-0.5-4.8-0.5c-10.2,0-19.6,7.3-23.4,19.6c-1.5,4.8-2,9.9-2,15
				v34.2h-16V-208.9z"/>
			<path class="st2" d="M3866.9-228.2c23.4,0,36,17.5,36,39.1c0,2.1-0.5,6.6-0.5,6.6h-60.9c1,17.8,13.9,27.9,28.7,27.9
				c14.4,0,24.4-9.7,24.4-9.7l6.9,11.4c0,0-12.4,12.2-32.2,12.2c-26.4,0-44.4-19-44.4-43.7C3825-211,3843.2-228.2,3866.9-228.2z
				 M3886.4-194.2c-0.5-13.9-9.2-21.3-19.6-21.3c-12.2,0-22.1,7.4-24.6,21.3H3886.4z"/>
		</g>
	</g>
</g>
<g>
	<g>
		<path d="M161,7.5h-5.7V0h27c10.9,0,18.5,6.8,18.5,18.2c0,10.4-6.8,15.4-11.1,16.4v0.2c0,0,1.6,0.8,2.6,2.8l7.5,14.8
			c0.9,1.8,2.3,2,4.4,2h1.1v7.5H201c-4.8,0-6.6-0.6-8.6-4.6L184,40.6c-1.6-2.9-2.7-3.3-6.1-3.3h-8.1v24.7H161V7.5z M181.2,29.7
			c6.7,0,10.6-4.3,10.6-11.2c0-6.9-3.9-11-10.4-11h-11.6v22.2H181.2z"/>
		<path d="M231.9,16.5c12.5,0,19.1,9.3,19.1,20.8c0,1.1-0.3,3.5-0.3,3.5h-32.4c0.5,9.5,7.4,14.8,15.3,14.8c7.6,0,13-5.2,13-5.2
			l3.7,6.1c0,0-6.6,6.5-17.1,6.5c-14,0-23.6-10.1-23.6-23.2C209.6,25.6,219.3,16.5,231.9,16.5z M242.2,34.6
			c-0.3-7.4-4.9-11.3-10.4-11.3c-6.5,0-11.8,3.9-13.1,11.3H242.2z"/>
		<path d="M279.1,16.5c10.3,0,13.7,6.8,13.7,6.8h0.2c0,0-0.2-1.3-0.2-3V9.2c0-1.3-0.7-1.9-1.9-1.9h-3.6V0h8.4c3.9,0,5.6,1.7,5.6,5.6
			v47.1c0,1.3,0.7,1.9,1.9,1.9h3.6v7.3h-8.2c-3.9,0-5.4-1.8-5.4-4.7c0-1.3,0.1-2.3,0.1-2.3h-0.2c0,0-3.7,8.1-14.6,8.1
			c-12,0-19.6-9.5-19.6-23.2C259,25.6,267.3,16.5,279.1,16.5z M293,39.7c0-7.9-4.1-15.8-12.6-15.8c-6.9,0-12.7,5.8-12.7,15.9
			c0,9.7,5.2,15.9,12.5,15.9C286.8,55.6,293,51,293,39.7z"/>
		<path class="st2" d="M314.5,26.6c-0.4-1.4-1.3-1.8-2.7-1.8h-1.2v-7.3h5.4c3.9,0,5.4,1,6.6,4.7l7.9,26.4c0.7,2.3,1.1,4.7,1.1,4.7
			h0.2c0,0,0.5-2.5,1.2-4.7l9.6-31h7.8l9.7,31c0.7,2.3,1.1,4.7,1.1,4.7h0.2c0,0,0.3-2.5,1.1-4.7l7.8-26.4c1.1-3.8,2.7-4.7,6.7-4.7
			h5.3v7.3h-1.2c-1.4,0-2.3,0.4-2.7,1.8l-11.7,35.4h-9.6l-9.2-28.5c-0.7-2.3-1.2-4.8-1.2-4.8h-0.2c0,0-0.5,2.5-1.2,4.8l-9.1,28.5
			h-9.7L314.5,26.6z"/>
		<path class="st2" d="M391.7,26.8c0-1.3-0.7-1.9-1.9-1.9h-3.6v-7.3h8.3c3.9,0,5.6,1.7,5.6,5.6v29.6c0,1.3,0.7,1.9,1.9,1.9h3.6v7.3
			h-8.3c-3.9,0-5.6-1.7-5.6-5.6V26.8z M391.8,0h7.6v8.9h-7.6V0z"/>
		<path class="st2" d="M416.2,26.8c0-1.3-0.7-1.9-1.9-1.9h-3.6v-7.3h8.1c3.9,0,5.7,1.6,5.7,5.2v2.8c0,1.8-0.2,3.1-0.2,3.1h0.2
			c2.1-6.5,7.2-11.6,14-11.6c1.1,0,2.3,0.2,2.3,0.2v8.4c0,0-1.1-0.3-2.5-0.3c-5.4,0-10.4,3.9-12.5,10.4c-0.8,2.5-1.1,5.3-1.1,8v18.2
			h-8.5V26.8z"/>
		<path class="st2" d="M467.3,16.5c12.5,0,19.1,9.3,19.1,20.8c0,1.1-0.3,3.5-0.3,3.5h-32.4c0.5,9.5,7.4,14.8,15.3,14.8
			c7.6,0,13-5.2,13-5.2l3.7,6.1c0,0-6.6,6.5-17.1,6.5c-14,0-23.6-10.1-23.6-23.2C445,25.6,454.6,16.5,467.3,16.5z M477.6,34.6
			c-0.3-7.4-4.9-11.3-10.4-11.3c-6.5,0-11.8,3.9-13.1,11.3H477.6z"/>
	</g>
	<g>
		
			<linearGradient id="SVGID_9_" gradientUnits="userSpaceOnUse" x1="-216.321" y1="-82.0629" x2="-386.5606" y2="-150.0753" gradientTransform="matrix(0.991 0.134 -0.134 0.991 437.7034 240.2419)">
			<stop  offset="0" style="stop-color:#BE1E2D"/>
			<stop  offset="0" style="stop-color:#BE1E2D"/>
			<stop  offset="0.9787" style="stop-color:#BE1E2D;stop-opacity:0.7064"/>
			<stop  offset="1" style="stop-color:#BE1E2D;stop-opacity:0.7"/>
		</linearGradient>
		<path class="st7" d="M269.8,125.8c-15.9,3.4-31.8,3.7-46.5-1.6c-14.1-5.1-26.2-14.7-37.5-24.8c-13.9-12.4-26.9-26-40.7-38.6
			c-13.8-12.6-28.5-22.5-46.5-27.1c-20.8-5.3-43.2-2.9-64.4,6c-0.9,0.4-0.4,1.8,0.5,1.4c18.8-7.5,38.3-9.6,57-6.2
			c18.7,3.4,33.1,13.3,47.1,26.2c14,12.8,27.4,29.8,41.4,42.6c11.1,10.2,18.2,17.4,31.9,23.1c18,7.4,39.8,5.6,57.6,0.2
			C270.7,126.7,270.9,125.6,269.8,125.8z"/>
		<g>
			<g>
				
					<ellipse transform="matrix(0.9224 -0.3862 0.3862 0.9224 -20.9259 99.2996)" class="st2" cx="236.7" cy="101.7" rx="1.8" ry="1.8"/>
			</g>
			<g>
				
					<ellipse transform="matrix(0.9224 -0.3861 0.3861 0.9224 -23.2332 95.9759)" class="st2" cx="227.3" cy="105.8" rx="2.4" ry="2.4"/>
			</g>
			<g>
				<ellipse transform="matrix(0.9225 -0.386 0.386 0.9225 -25.5396 92.6598)" class="st2" cx="218" cy="109.9" rx="2.7" ry="2.7"/>
			</g>
			<g>
				
					<ellipse transform="matrix(0.9223 -0.3864 0.3864 0.9223 -27.5962 89.2965)" class="st2" cx="208.3" cy="113.3" rx="2.8" ry="2.8"/>
			</g>
			<g>
				<path class="st2" d="M201.2,115.4c0.6,1.4-0.1,3.1-1.5,3.7c-1.4,0.6-3.1-0.1-3.7-1.5c-0.6-1.4,0.1-3.1,1.5-3.7
					C199,113.3,200.6,114,201.2,115.4z"/>
			</g>
			<g>
				
					<ellipse transform="matrix(0.9224 -0.3862 0.3862 0.9224 -31.1622 82.0492)" class="st2" cx="188.7" cy="118.6" rx="2.8" ry="2.8"/>
			</g>
			<g>
				
					<ellipse transform="matrix(0.9223 -0.3865 0.3865 0.9223 -32.632 78.3722)" class="st2" cx="178.6" cy="120.3" rx="2.8" ry="2.8"/>
			</g>
			<g>
				
					<ellipse transform="matrix(0.9225 -0.386 0.386 0.9225 -33.2939 74.3054)" class="st2" cx="168.4" cy="120.1" rx="2.7" ry="2.7"/>
			</g>
			<g>
				
					<ellipse transform="matrix(0.9226 -0.3858 0.3858 0.9226 -33.6588 70.2983)" class="st2" cx="158.3" cy="119" rx="2.7" ry="2.7"/>
			</g>
			<g>
				
					<ellipse transform="matrix(0.9223 -0.3864 0.3864 0.9223 -33.2713 66.4077)" class="st2" cx="148.6" cy="116" rx="2.6" ry="2.6"/>
			</g>
			<g>
				
					<ellipse transform="matrix(0.9225 -0.386 0.386 0.9225 -32.2513 62.4765)" class="st2" cx="139.5" cy="111.6" rx="2.5" ry="2.5"/>
			</g>
			<g>
				
					<ellipse transform="matrix(0.9224 -0.3863 0.3863 0.9224 -30.8249 58.7703)" class="st2" cx="130.8" cy="106.1" rx="2.4" ry="2.4"/>
			</g>
			<g>
				<ellipse transform="matrix(0.9225 -0.386 0.386 0.9225 -28.795 55.2718)" class="st2" cx="123.2" cy="99.3" rx="2.3" ry="2.3"/>
			</g>
			<g>
				
					<ellipse transform="matrix(0.9224 -0.3861 0.3861 0.9224 -26.5829 51.9323)" class="st2" cx="116" cy="92.1" rx="2.2" ry="2.2"/>
			</g>
			<g>
				
					<ellipse transform="matrix(0.9224 -0.3861 0.3861 0.9224 -24.0458 48.8314)" class="st2" cx="109.5" cy="84.3" rx="2.1" ry="2.1"/>
			</g>
			<g>
				
					<ellipse transform="matrix(0.9223 -0.3866 0.3866 0.9223 -21.1964 46.0669)" class="st2" cx="103.9" cy="75.7" rx="2.1" ry="2.1"/>
			</g>
			<g>
				<ellipse transform="matrix(0.9223 -0.3865 0.3865 0.9223 -18.2392 43.3253)" class="st2" cx="98.6" cy="67" rx="2" ry="2"/>
			</g>
			<g>
				
					<ellipse transform="matrix(0.9222 -0.3867 0.3867 0.9222 -15.3116 40.5857)" class="st2" cx="93.2" cy="58.4" rx="1.9" ry="1.9"/>
			</g>
			<g>
				
					<ellipse transform="matrix(0.9222 -0.3867 0.3867 0.9222 -12.5994 37.6143)" class="st2" cx="87.2" cy="50.1" rx="1.9" ry="1.9"/>
			</g>
			<g>
				
					<ellipse transform="matrix(0.9222 -0.3866 0.3866 0.9222 -10.1669 34.4062)" class="st2" cx="80.5" cy="42.5" rx="1.8" ry="1.8"/>
			</g>
			<g>
				
					<ellipse transform="matrix(0.9222 -0.3868 0.3868 0.9222 -8.0275 31.0271)" class="st2" cx="73.1" cy="35.5" rx="1.7" ry="1.7"/>
			</g>
			<g>
				<ellipse transform="matrix(0.9224 -0.3862 0.3862 0.9224 -6.4354 27.278)" class="st2" cx="64.7" cy="29.7" rx="1.6" ry="1.6"/>
			</g>
			<g>
				<ellipse transform="matrix(0.9224 -0.3862 0.3862 0.9224 -5.4243 23.41)" class="st2" cx="55.6" cy="25.2" rx="1.4" ry="1.4"/>
			</g>
			<g>
				<ellipse transform="matrix(0.922 -0.3872 0.3872 0.922 -4.7116 19.5053)" class="st2" cx="46.1" cy="21.4" rx="1.2" ry="1.2"/>
			</g>
			<g>
				<ellipse transform="matrix(0.9226 -0.3857 0.3857 0.9226 -4.8781 15.4145)" class="st2" cx="36" cy="19.9" rx="1.1" ry="1.1"/>
			</g>
			<g>
				<ellipse transform="matrix(0.9225 -0.386 0.386 0.9225 -5.0782 11.4146)" class="st2" cx="25.9" cy="18.4" rx="0.9" ry="0.9"/>
			</g>
		</g>
		
			<linearGradient id="SVGID_10_" gradientUnits="userSpaceOnUse" x1="-359.6217" y1="-181.7738" x2="-283.678" y2="-73.2827" gradientTransform="matrix(0.991 0.134 -0.134 0.991 437.7034 240.2419)">
			<stop  offset="0" style="stop-color:#BE1E2D"/>
			<stop  offset="0.1397" style="stop-color:#B51C2A"/>
			<stop  offset="0.4037" style="stop-color:#9C1421"/>
			<stop  offset="0.761" style="stop-color:#75030E"/>
			<stop  offset="1" style="stop-color:#5A0000"/>
		</linearGradient>
		<path class="st8" d="M263.1,103.8c-9.8,5-25.8,11.3-37,16.1c-21.3,9.2-45.9,15.1-68.2,5.9c-10-4.1-18.9-10.9-25-19.8
			c-6.2-8.9-10.1-16.2-14.2-26.3c-4.3-10.8-10.2-21.8-15.1-32.4c-4.1-8.9-8.7-16.5-15.8-23.4C63.9,0.4,27.8,9.3,0.3,20.9
			c-0.5,0.2-0.2,1.1,0.4,0.8c22.4-9,49.7-16.6,72.8-5.5c19.9,9.5,28,31.5,35.5,50.7c4.2,10.7,8.2,21.5,13.2,31.8
			c4,8.3,8.9,16.8,16,22.8c8.8,7.4,19.1,12.5,30.5,14.5c11.1,2,22.5,0.8,33.4-1.8c15.8-3.8,49.1-21,61.6-29.6
			C264.2,104.4,263.7,103.5,263.1,103.8z"/>
	</g>
</g>
</svg>
