<?xml version="1.0" encoding="utf-8"?>
<!-- Generator: Adobe Illustrator 16.0.0, SVG Export Plug-In . SVG Version: 6.00 Build 0)  -->
<!DOCTYPE svg PUBLIC "-//W3C//DTD SVG 1.1//EN" "http://www.w3.org/Graphics/SVG/1.1/DTD/svg11.dtd">
<svg version="1.1" id="Layer_1" xmlns="http://www.w3.org/2000/svg" xmlns:xlink="http://www.w3.org/1999/xlink" x="0px" y="0px"
	 width="3973.589px" height="1272.509px" viewBox="0 0 3973.589 1272.509" enable-background="new 0 0 3973.589 1272.509"
	 xml:space="preserve">
<g>
	<path fill="none" stroke="#C32026" stroke-miterlimit="10" d="M418.882,666.409c0,0,542.02-335.797,820.066-245.381
		c382.754,124.464,456.975,377.415,841.199,315.616c302.406-48.639,334.088-328.876,593.973-529.257
		c199.838-154.081,624.777-164.924,1071.953,93.515"/>
	<path fill="none" stroke="#C32026" stroke-width="1.129" stroke-miterlimit="10" d="M422.923,663.972
		c0,0,532.226-334.515,815.593-245.917c383.487,119.901,460.511,371.535,840.034,316.778
		c299.398-42.644,335.241-313.611,594.891-505.738c202.986-150.2,626.646-161.854,1068.204,65.258"/>
	<path fill="none" stroke="#C32026" stroke-width="1.2581" stroke-miterlimit="10" d="M426.964,661.534
		c0,0,522.402-333.195,811.119-246.454c384.175,115.421,464.046,365.656,838.87,317.938
		c296.39-36.648,336.533-298.268,595.808-482.217c206.229-146.315,628.516-158.786,1064.456,37.001"/>
	<path fill="none" stroke="#C32026" stroke-width="1.3871" stroke-miterlimit="10" d="M431.004,659.096
		c0,0,512.551-331.834,806.645-246.989c384.821,111.021,467.474,358.786,837.705,319.099
		c293.298-31.438,337.965-282.844,596.726-458.697c209.564-142.419,630.384-155.717,1060.707,8.744"/>
	<path fill="none" stroke="#C32026" stroke-width="1.5161" stroke-miterlimit="10" d="M435.045,656.659
		c0,0,502.675-330.435,802.172-247.525c385.429,106.698,471.001,352.605,836.54,320.261
		c290.284-25.686,339.53-267.333,597.644-435.178c212.994-138.506,632.253-152.647,1056.958-19.513"/>
	<path fill="none" stroke="#C32026" stroke-width="1.6452" stroke-miterlimit="10" d="M439.086,654.222
		c0,0,492.774-328.993,797.698-248.062c386.003,102.451,474.541,346.442,835.376,321.423
		c287.28-19.92,341.229-251.726,598.561-411.658c216.516-134.565,634.121-149.579,1053.209-47.77"/>
	<path fill="none" stroke="#C32026" stroke-width="1.7742" stroke-miterlimit="10" d="M443.127,651.782
		c0,0,482.852-327.507,793.224-248.596c386.547,98.277,478.093,340.297,834.21,322.584
		c284.287-14.141,343.055-236.017,599.479-388.138c220.131-130.59,635.989-146.51,1049.46-76.026"/>
	<path fill="none" stroke="#C32026" stroke-width="1.9032" stroke-miterlimit="10" d="M447.168,649.345
		c0,0,472.909-325.978,788.75-249.132c387.061,94.174,481.656,334.171,833.045,323.745
		c281.303-8.347,345.005-220.201,600.396-364.617c223.835-126.572,637.859-143.441,1045.711-104.284"/>
	<path fill="none" stroke="#C32026" stroke-width="2.0323" stroke-miterlimit="10" d="M451.209,646.907
		c0,0,462.947-324.405,784.276-249.668c387.55,90.139,485.232,328.066,831.882,324.906
		c278.328-2.539,347.072-204.274,601.313-341.097c227.629-122.501,639.728-140.373,1041.963-132.541"/>
	<path fill="none" stroke="#C32026" stroke-width="2.1613" stroke-miterlimit="10" d="M455.25,644.47
		c0,0,452.969-322.786,779.803-250.204c388.018,86.169,488.817,321.985,830.717,326.067
		c275.362,3.288,349.252-188.23,602.231-317.577c231.509-118.369,641.598-137.304,1038.214-160.797"/>
	<path fill="none" stroke="#C32026" stroke-width="2.2903" stroke-miterlimit="10" d="M459.291,642.032
		c0,0,442.975-321.122,775.329-250.74c388.464,82.264,492.411,315.928,829.552,327.229
		c272.404,9.131,351.537-172.067,603.148-294.057c235.473-114.165,643.467-134.234,1034.465-189.054"/>
	<path fill="none" stroke="#C32026" stroke-width="2.4194" stroke-miterlimit="10" d="M463.332,639.593
		c0,0,432.966-319.41,770.855-251.275c388.894,78.42,496.015,309.893,828.387,328.39c269.453,14.994,353.92-155.778,604.067-270.536
		c239.516-109.881,645.335-131.166,1030.716-217.312"/>
	<path fill="none" stroke="#C32026" stroke-width="2.5484" stroke-miterlimit="10" d="M467.372,637.156
		c0,0,422.946-317.651,766.382-251.811c389.309,74.635,499.623,303.887,827.221,329.551
		c266.507,20.879,356.393-139.363,604.985-247.016c243.635-105.505,647.204-128.097,1026.968-245.568"/>
	<path fill="none" stroke="#C32026" stroke-width="2.6774" stroke-miterlimit="10" d="M471.414,634.719
		c0,0,412.915-315.846,761.908-252.348c389.711,70.907,503.237,297.907,826.058,330.712
		c263.564,26.784,358.946-122.82,605.902-223.495c247.826-101.03,649.072-125.028,1023.218-273.825"/>
	<path fill="none" stroke="#C32026" stroke-width="2.8065" stroke-miterlimit="10" d="M475.454,632.28
		c0,0,402.874-313.992,757.435-252.883c390.101,67.234,506.854,291.956,824.893,331.873
		c260.624,32.712,361.573-106.148,606.819-199.976c252.084-96.443,650.941-121.959,1019.47-302.081"/>
	<path fill="none" stroke="#C32026" stroke-width="2.9355" stroke-miterlimit="10" d="M479.495,629.842
		c0,0,392.825-312.089,752.96-253.418c390.483,63.615,510.473,286.034,823.729,333.034
		c257.688,38.662,364.263-89.344,607.737-176.456c256.402-91.737,652.811-118.89,1015.721-330.338"/>
	<path fill="none" stroke="#C32026" stroke-width="3.0645" stroke-miterlimit="10" d="M483.536,627.404
		c0,0,382.769-310.138,748.486-253.954c390.857,60.046,514.091,280.145,822.563,334.195
		c254.749,44.639,367.008-72.409,608.655-152.935c260.775-86.9,654.679-115.821,1011.972-358.596"/>
	<path fill="none" stroke="#C32026" stroke-width="3.1935" stroke-miterlimit="10" d="M487.577,624.967
		c0,0,372.708-308.139,744.013-254.49c391.226,56.527,517.705,274.284,821.398,335.356
		c251.808,50.639,369.797-55.345,609.573-129.415c265.194-81.922,656.547-112.752,1008.223-386.852"/>
	<path fill="none" stroke="#C32026" stroke-width="3.3226" stroke-miterlimit="10" d="M491.618,622.529
		c0,0,362.642-306.09,739.54-255.026c391.591,53.055,521.313,268.456,820.233,336.519c248.862,56.665,372.62-38.151,610.49-105.896
		c269.655-76.796,658.417-109.683,1004.475-415.109"/>
	<path fill="none" stroke="#C32026" stroke-width="3.4516" stroke-miterlimit="10" d="M495.659,620.091
		c0,0,352.572-303.992,735.065-255.562c391.953,49.628,524.915,262.657,819.069,337.68
		c245.909,62.718,375.468-20.829,611.408-82.375c274.146-71.512,660.286-106.614,1000.726-443.366"/>
	<path fill="none" stroke="#C32026" stroke-width="3.5806" stroke-miterlimit="10" d="M499.7,617.653
		c0,0,342.5-301.845,730.592-256.098c392.314,46.245,528.505,256.891,817.905,338.841c242.948,68.796,378.328-3.381,612.325-58.854
		c278.662-66.062,662.154-103.546,996.976-471.623"/>
	<path fill="none" stroke="#C32026" stroke-width="3.7097" stroke-miterlimit="10" d="M503.74,615.215
		c0,0,332.428-299.648,726.118-256.633c392.676,42.904,532.082,251.154,816.74,340.002
		c239.976,74.901,381.195,14.188,613.243-35.334c283.192-60.438,664.022-100.477,993.228-499.88"/>
	<path fill="none" stroke="#C32026" stroke-width="3.8387" stroke-miterlimit="10" d="M507.781,612.778
		c0,0,322.355-297.403,721.645-257.169c393.039,39.604,535.644,245.448,815.575,341.164
		c236.989,81.032,384.056,31.875,614.16-11.815c287.729-54.632,665.893-97.407,989.479-528.137"/>
	<path fill="none" stroke="#C32026" stroke-width="3.9677" stroke-miterlimit="10" d="M511.822,610.34
		c0,0,312.283-295.108,717.171-257.705c393.404,36.343,539.186,239.77,814.41,342.324c233.987,87.188,386.9,49.681,615.078,11.706
		c292.258-48.639,667.762-94.338,985.729-556.394"/>
	<path fill="none" stroke="#C32026" stroke-width="4.0968" stroke-miterlimit="10" d="M515.863,607.902
		c0,0,302.213-292.765,712.697-258.241c393.774,33.118,542.707,234.12,813.244,343.486c230.969,93.37,389.722,67.594,615.997,35.226
		c296.772-42.452,669.63-91.27,981.98-584.651"/>
	<path fill="none" stroke="#C32026" stroke-width="4.2258" stroke-miterlimit="10" d="M519.904,605.464
		c0,0,292.147-290.371,708.224-258.776c394.148,29.93,546.206,228.495,812.08,344.647c227.928,99.574,392.505,85.613,616.915,58.746
		c301.261-36.068,671.498-88.201,978.231-612.908"/>
	<path fill="none" stroke="#C32026" stroke-width="4.3548" stroke-miterlimit="10" d="M523.945,603.026
		c0,0,282.083-287.929,703.75-259.312c394.528,26.775,549.678,222.893,810.916,345.808
		c224.863,105.801,395.245,103.732,617.831,82.266c305.713-29.483,673.368-85.131,974.483-641.164"/>
	<path fill="none" stroke="#C32026" stroke-width="4.4839" stroke-miterlimit="10" d="M527.986,600.589
		c0,0,272.026-285.439,699.276-259.848c394.915,23.654,553.121,217.313,809.751,346.969
		c221.775,112.047,397.933,121.948,618.749,105.787c310.116-22.697,675.237-82.063,970.734-669.422"/>
	<path fill="none" stroke="#C32026" stroke-width="4.6129" stroke-miterlimit="10" d="M532.027,598.151
		c0,0,261.973-282.901,694.802-260.384c395.309,20.564,556.536,211.753,808.586,348.131
		c218.662,118.313,400.559,140.251,619.667,129.307c314.461-15.707,677.105-78.994,966.986-697.678"/>
	<path fill="none" stroke="#C32026" stroke-width="4.7419" stroke-miterlimit="10" d="M536.067,595.713
		c0,0,251.928-280.314,690.329-260.92c395.711,17.506,559.917,206.208,807.421,349.292
		c215.52,124.594,403.115,158.637,620.585,152.827c318.735-8.515,678.974-75.925,963.236-725.936"/>
	<path fill="none" stroke="#C32026" stroke-width="4.871" stroke-miterlimit="10" d="M540.108,593.275
		c0,0,241.863-276.959,685.854-261.455c396.099,15.119,563.046,201.035,806.257,350.453
		c212.155,131.203,405.607,173.877,621.502,176.348c322.91,3.694,680.844-72.856,959.488-754.193"/>
	<path fill="none" stroke="#C32026" stroke-width="5" stroke-miterlimit="10" d="M544.149,590.837
		c0,0,231.857-274.998,681.381-261.991c396.543,11.474,566.582,195.155,805.092,351.614
		c209.146,137.197,407.99,195.629,622.42,199.867c327.031,6.465,682.712-69.787,955.739-782.449"/>
	<path fill="none" stroke="#C32026" stroke-width="4.8548" stroke-miterlimit="10" d="M537.353,608.741
		c0,0,240.979-282.006,686.178-275.179c391.137,6.923,562.759,188.974,804.789,345.327
		c208.109,135.289,404.88,192.215,621.283,194.973c331.771,3.944,695.016-76.539,966.283-773.934"/>
	<path fill="none" stroke="#C32026" stroke-width="4.7097" stroke-miterlimit="10" d="M530.556,626.645
		c0,0,250.101-290.047,690.975-288.367c385.735,1.47,559.368,182.115,804.486,339.041
		c207.44,132.806,401.77,188.801,620.146,190.078c336.512,1.423,707.319-83.291,976.829-765.418"/>
	<path fill="none" stroke="#C32026" stroke-width="4.5645" stroke-miterlimit="10" d="M523.758,644.548
		c0,0,259.203-297.539,695.772-301.554c380.316-3.498,555.736,175.617,804.183,332.755
		c206.558,130.645,398.659,185.388,619.009,185.184c341.252-1.099,719.622-90.044,987.372-756.903"/>
	<path fill="none" stroke="#C32026" stroke-width="4.4194" stroke-miterlimit="10" d="M516.962,662.452
		c0,0,268.291-305.007,700.569-314.741c374.884-8.441,552.089,169.137,803.88,326.469
		c205.659,128.507,395.549,181.974,617.871,180.288c345.993-3.619,731.928-96.796,997.918-748.388"/>
	<path fill="none" stroke="#C32026" stroke-width="4.2742" stroke-miterlimit="10" d="M510.165,680.356
		c0,0,277.366-312.452,705.367-327.93c369.444-13.36,548.427,162.675,803.577,320.183
		c204.743,126.391,392.438,178.56,616.734,175.393c350.732-6.14,744.231-103.547,1008.462-739.872"/>
	<path fill="none" stroke="#C32026" stroke-width="4.129" stroke-miterlimit="10" d="M503.368,698.259
		c0,0,286.43-319.868,710.163-341.116c363.995-18.252,544.751,156.23,803.274,313.896
		c203.81,124.298,389.328,175.146,615.598,170.497c355.473-8.66,756.534-110.298,1019.006-731.356"/>
	<path fill="none" stroke="#C32026" stroke-width="3.9839" stroke-miterlimit="10" d="M496.571,716.163
		c0,0,295.482-327.258,714.96-354.304c358.536-23.117,541.059,149.805,802.971,307.609
		c202.861,122.226,386.232,172.211,614.46,165.604c360.235-10.429,768.838-117.051,1029.551-722.841"/>
	<path fill="none" stroke="#C32026" stroke-width="3.8387" stroke-miterlimit="10" d="M489.774,734.067
		c0,0,304.525-334.618,719.758-367.492c353.07-27.953,537.351,143.399,802.668,301.323
		c201.896,120.175,383.125,168.835,613.323,160.708c364.983-12.886,781.142-123.803,1040.095-714.325"/>
	<path fill="none" stroke="#C32026" stroke-width="3.6936" stroke-miterlimit="10" d="M482.977,751.972
		c0,0,313.559-341.947,724.555-380.68c347.596-32.758,533.628,137.014,802.366,295.037
		c200.919,118.145,380.019,165.454,612.186,155.813c369.73-15.352,793.446-130.555,1050.64-705.811"/>
	<path fill="none" stroke="#C32026" stroke-width="3.5484" stroke-miterlimit="10" d="M476.18,769.874
		c0,0,322.585-349.241,729.353-393.866c342.118-37.533,529.89,130.65,802.063,288.75
		c199.928,116.134,376.913,162.065,611.049,150.919c374.479-17.829,805.75-137.308,1061.185-697.295"/>
	<path fill="none" stroke="#C32026" stroke-width="3.4032" stroke-miterlimit="10" d="M469.383,787.777
		c0,0,331.605-356.502,734.149-407.054c336.634-42.275,526.137,124.309,801.76,282.464
		c198.924,114.145,373.808,158.671,609.912,146.023c379.226-20.313,818.053-144.059,1071.729-688.779"/>
	<path fill="none" stroke="#C32026" stroke-width="3.2581" stroke-miterlimit="10" d="M462.586,805.682
		c0,0,340.62-363.727,738.946-420.242c331.148-46.984,522.37,117.991,801.457,276.178
		c197.908,112.175,370.701,155.271,608.775,141.129c383.974-22.81,830.356-150.811,1082.272-680.264"/>
	<path fill="none" stroke="#C32026" stroke-width="3.1129" stroke-miterlimit="10" d="M455.79,823.586
		c0,0,349.632-370.912,743.744-433.43c325.66-51.659,518.586,111.697,801.153,269.892
		c196.88,110.223,367.595,151.865,607.638,136.233c388.722-25.313,842.661-157.563,1092.818-671.749"/>
	<path fill="none" stroke="#C32026" stroke-width="2.9677" stroke-miterlimit="10" d="M448.992,841.489
		c0,0,358.644-378.058,748.541-446.617c320.171-56.299,514.79,105.426,800.851,263.605
		c195.841,108.291,364.488,148.453,606.5,131.338c393.468-27.826,854.965-164.314,1103.363-663.232"/>
	<path fill="none" stroke="#C32026" stroke-width="2.8226" stroke-miterlimit="10" d="M442.195,859.393
		c0,0,367.656-385.162,753.338-459.805c314.685-60.903,510.977,99.182,800.548,257.319
		c194.791,106.377,361.38,145.037,605.363,126.443c398.212-30.35,867.268-171.066,1113.906-654.718"/>
	<path fill="none" stroke="#C32026" stroke-width="2.6774" stroke-miterlimit="10" d="M435.398,877.297
		c0,0,376.673-392.222,758.135-472.992c309.201-65.47,507.152,92.964,800.245,251.032
		c193.73,104.48,358.273,141.615,604.227,121.549c402.957-32.879,879.572-177.819,1124.451-646.202"/>
	<path fill="none" stroke="#C32026" stroke-width="2.5323" stroke-miterlimit="10" d="M428.602,895.2
		c0,0,385.695-399.238,762.932-486.18c303.723-69.999,503.311,86.774,799.942,244.746
		c192.662,102.603,355.164,138.189,603.089,116.653c407.702-35.416,891.876-184.57,1134.997-637.687"/>
	<path fill="none" stroke="#C32026" stroke-width="2.3871" stroke-miterlimit="10" d="M421.805,913.104
		c0,0,394.727-406.208,767.729-499.368c298.253-74.491,499.456,80.611,799.64,238.459
		c191.584,100.742,352.057,134.76,601.952,111.759c412.445-37.962,904.18-191.322,1145.54-629.171"/>
	<path fill="none" stroke="#C32026" stroke-width="2.2419" stroke-miterlimit="10" d="M415.008,931.008
		c0,0,403.771-413.129,772.526-512.555c292.791-78.944,495.584,74.479,799.336,232.173
		c190.498,98.898,348.946,131.324,600.814,106.864c417.187-40.515,916.484-198.075,1156.086-620.656"/>
	<path fill="none" stroke="#C32026" stroke-width="2.0968" stroke-miterlimit="10" d="M408.211,948.911
		c0,0,412.83-420,777.323-525.742c287.342-83.36,491.702,68.375,799.033,225.887c189.403,97.07,345.837,127.885,599.678,101.969
		c421.928-43.076,928.787-204.826,1166.63-612.14"/>
	<path fill="none" stroke="#C32026" stroke-width="1.9516" stroke-miterlimit="10" d="M401.414,966.815
		c0,0,421.908-426.824,782.12-538.931c281.907-87.737,487.803,62.305,798.73,219.601c188.302,95.26,342.672,123.942,598.541,97.074
		c426.576-46.477,941.091-211.578,1177.174-603.625"/>
	<path fill="none" stroke="#C32026" stroke-width="1.8065" stroke-miterlimit="10" d="M394.617,984.719
		c0,0,431.009-433.595,786.917-552.118c276.491-92.076,483.89,56.265,798.428,213.314
		c187.193,93.466,339.562,120.529,597.403,92.179c431.317-48.996,953.396-218.329,1187.719-595.108"/>
	<path fill="none" stroke="#C32026" stroke-width="1.6613" stroke-miterlimit="10" d="M387.82,1002.623
		c0,0,440.136-440.315,791.715-565.306c271.093-96.377,479.963,50.259,798.125,207.027
		c186.079,91.688,336.451,117.115,596.267,87.284c436.058-51.518,965.698-225.082,1198.263-586.594"/>
	<path fill="none" stroke="#C32026" stroke-width="1.5161" stroke-miterlimit="10" d="M381.023,1020.526
		c0,0,449.292-446.982,796.511-578.493c265.718-100.642,476.022,44.287,797.822,200.741
		c184.959,89.924,333.341,113.702,595.13,82.389c440.798-54.038,978.002-231.833,1208.808-578.077"/>
	<path fill="none" stroke="#C32026" stroke-width="1.371" stroke-miterlimit="10" d="M374.226,1038.431
		c0,0,458.485-453.599,801.309-591.681c260.368-104.871,472.066,38.35,797.519,194.454
		c183.833,88.176,330.23,110.288,593.992,77.494c445.538-56.56,990.307-238.585,1219.353-569.562"/>
	<path fill="none" stroke="#C32026" stroke-width="1.2258" stroke-miterlimit="10" d="M367.429,1056.334
		c0,0,467.715-460.163,806.106-604.868c255.047-109.065,468.098,32.45,797.216,188.168c182.703,86.443,327.12,106.875,592.855,72.6
		c450.278-59.08,1002.609-245.337,1229.896-561.047"/>
	<path fill="none" stroke="#C32026" stroke-width="1.0806" stroke-miterlimit="10" d="M360.632,1074.237
		c0,0,476.988-466.676,810.904-618.056c249.756-113.226,464.114,26.588,796.913,181.882
		c181.567,84.725,324.01,103.46,591.719,67.705c455.018-61.602,1014.913-252.09,1240.44-552.532"/>
	<path fill="none" stroke="#C32026" stroke-width="0.9355" stroke-miterlimit="10" d="M353.835,1092.142
		c0,0,486.309-473.141,815.701-631.244c244.5-117.355,460.118,20.762,796.61,175.595c180.429,83.022,320.899,100.048,590.581,62.811
		c459.759-64.123,1027.218-258.843,1250.985-544.017"/>
	<path fill="none" stroke="#C32026" stroke-width="0.7903" stroke-miterlimit="10" d="M347.039,1110.045
		c0,0,495.68-479.556,820.497-644.431c239.28-121.457,456.107,14.978,796.307,169.309c179.285,81.333,317.789,96.634,589.444,57.915
		c464.498-66.644,1039.521-265.594,1261.53-535.5"/>
	<path fill="none" stroke="#C32026" stroke-width="0.6452" stroke-miterlimit="10" d="M340.241,1127.949
		c0,0,505.108-485.926,825.295-657.619c234.099-125.531,451.869,9.714,796.004,163.022
		c178.028,79.906,314.679,93.221,588.308,53.021c469.238-69.165,1051.824-272.346,1272.074-526.985"/>
	<path fill="none" stroke="#C32026" stroke-width="0.5" stroke-miterlimit="10" d="M333.444,1145.853
		c0,0,514.596-492.252,830.092-670.806c228.961-129.582,448.045,3.532,795.701,156.736c176.991,77.996,311.568,89.806,587.17,48.125
		c473.979-71.685,1064.129-279.097,1282.619-518.469"/>
	<path fill="none" stroke="#C01F25" stroke-width="0.5806" stroke-miterlimit="10" d="M330.057,1116.195
		c0,0,511.911-479.264,833.415-647.812c231.557-121.393,451.975,22.996,801.807,169.971
		c182.733,76.772,317.227,81.473,588.697,36.038c463.358-77.549,1039.441-283.251,1263.795-513.841"/>
	<path fill="none" stroke="#BC1F24" stroke-width="0.6613" stroke-miterlimit="10" d="M326.669,1086.537
		c0,0,509.104-466.307,836.737-624.818c234.065-113.243,456.034,42.287,807.913,183.208
		c188.533,75.504,322.854,73.168,590.223,23.949c452.704-83.336,1014.753-287.403,1244.974-509.212"/>
	<path fill="none" stroke="#B91E24" stroke-width="0.7419" stroke-miterlimit="10" d="M323.282,1056.88
		c0,0,506.181-453.391,840.059-601.825c236.49-105.137,460.21,61.41,814.019,196.442c194.385,74.188,328.453,64.902,591.75,11.863
		c442.014-89.038,990.063-291.558,1226.148-504.583"/>
	<path fill="none" stroke="#B51E23" stroke-width="0.8226" stroke-miterlimit="10" d="M319.895,1027.223
		c0,0,503.146-440.526,843.382-578.831c238.834-97.085,464.488,80.374,820.124,209.678c200.286,72.82,334.023,56.672,593.277-0.225
		c431.295-94.651,965.376-295.71,1207.325-499.954"/>
	<path fill="none" stroke="#B21D22" stroke-width="0.9032" stroke-miterlimit="10" d="M316.507,997.565
		c0,0,500.007-427.726,846.705-555.837c241.104-89.092,468.856,99.184,826.23,222.913c206.229,71.4,339.564,48.484,594.804-12.312
		c420.545-100.169,940.688-299.865,1188.502-495.326"/>
	<path fill="none" stroke="#AE1D21" stroke-width="0.9839" stroke-miterlimit="10" d="M313.12,967.907
		c0,0,496.77-415,850.027-532.843c243.304-81.164,473.305,117.85,832.336,236.148c212.212,69.923,345.083,40.341,596.331-24.398
		c409.77-105.586,916-304.018,1169.678-490.697"/>
	<path fill="none" stroke="#AB1C21" stroke-width="1.0645" stroke-miterlimit="10" d="M309.732,938.249
		c0,0,493.444-402.357,853.35-509.849c245.443-73.306,477.824,136.378,838.441,249.385
		c218.233,68.388,350.575,32.247,597.857-36.487c398.973-110.896,891.312-308.171,1150.854-486.068"/>
	<path fill="none" stroke="#A71B20" stroke-width="1.1452" stroke-miterlimit="10" d="M306.345,908.593
		c0,0,490.041-389.807,856.673-486.855c247.527-65.521,482.404,154.773,844.547,262.619
		c224.286,66.793,356.047,24.207,599.385-48.573c388.157-116.096,866.623-312.325,1132.03-481.44"/>
	<path fill="none" stroke="#A41B1F" stroke-width="1.2258" stroke-miterlimit="10" d="M302.958,878.936
		c0,0,486.568-377.356,859.996-463.861c249.564-57.812,487.037,173.043,850.653,275.854c230.367,65.136,361.5,16.224,600.91-60.661
		c377.329-121.176,841.936-316.478,1113.208-476.811"/>
	<path fill="none" stroke="#A01A1E" stroke-width="1.3065" stroke-miterlimit="10" d="M299.57,849.277
		c0,0,483.038-365.011,863.318-440.867c251.562-50.181,491.716,191.196,856.759,289.091
		c236.475,63.416,366.939,8.301,602.438-72.749c366.493-126.133,817.246-320.632,1094.384-472.182"/>
	<path fill="none" stroke="#9D1A1D" stroke-width="1.3871" stroke-miterlimit="10" d="M296.183,819.62
		c0,0,479.461-352.776,866.641-417.874c253.528-42.627,496.433,209.237,862.864,302.325
		c242.606,61.633,372.368,0.447,603.964-84.835c355.656-130.965,792.559-324.785,1075.561-467.553"/>
	<path fill="none" stroke="#99191D" stroke-width="1.4677" stroke-miterlimit="10" d="M292.795,789.962
		c0,0,475.849-340.652,869.963-394.879c255.472-35.15,501.183,227.17,868.97,315.561c248.758,59.784,377.79-7.339,605.491-96.923
		c344.824-135.664,767.87-328.938,1056.737-462.925"/>
	<path fill="none" stroke="#96181C" stroke-width="1.5484" stroke-miterlimit="10" d="M289.408,760.305
		c0,0,472.212-328.645,873.286-371.886c257.398-27.751,505.959,245.005,875.077,328.797
		c254.926,57.87,383.211-15.049,607.018-109.011c334.005-140.227,743.182-333.091,1037.913-458.295"/>
	<path fill="none" stroke="#92181B" stroke-width="1.629" stroke-miterlimit="10" d="M286.021,730.647
		c0,0,468.56-316.752,876.608-348.892c259.315-20.425,510.756,262.742,881.182,342.032
		c261.109,55.891,388.642-22.68,608.545-121.098c323.208-144.653,718.493-337.245,1019.09-453.667"/>
	<path fill="none" stroke="#8F171A" stroke-width="1.7097" stroke-miterlimit="10" d="M282.633,700.989
		c0,0,464.905-304.972,879.931-325.898c261.229-13.171,515.571,280.39,887.288,355.267
		c267.305,53.846,394.083-30.227,610.071-133.185c312.442-148.937,693.805-341.398,1000.267-449.038"/>
	<path fill="none" stroke="#8B171A" stroke-width="1.7903" stroke-miterlimit="10" d="M279.245,671.332
		c0,0,462.366-270.836,883.254-302.904c262.456-19.997,520.398,297.954,893.394,368.503
		c273.511,51.732,399.549-37.686,611.599-145.272c301.717-153.08,669.117-345.552,981.442-444.409"/>
	<path fill="none" stroke="#881619" stroke-width="1.871" stroke-miterlimit="10" d="M275.857,641.675
		c0,0,458.095-259.599,886.577-279.91c264.78-12.552,525.233,315.438,899.499,381.738c279.725,49.553,405.045-45.055,613.125-157.36
		c291.04-157.082,644.429-349.705,962.619-439.78"/>
	<path fill="none" stroke="#841618" stroke-width="1.9516" stroke-miterlimit="10" d="M272.47,612.017
		c0,0,454.002-270.296,889.9-256.916c267.016,8.196,530.072,332.844,905.604,394.975c285.944,47.308,410.582-52.327,614.652-169.448
		c280.428-160.945,619.741-353.858,943.797-435.152"/>
	<path fill="none" stroke="#811517" stroke-width="2.0323" stroke-miterlimit="10" d="M269.083,582.359
		c0,0,450.416-258.946,893.222-233.923c268.975,15.2,534.915,350.18,911.71,408.209c292.169,44.997,416.172-59.502,616.18-181.534
		c269.887-164.669,595.052-358.012,924.973-430.522"/>
	<path fill="none" stroke="#7D1417" stroke-width="2.1129" stroke-miterlimit="10" d="M265.695,552.702
		c0,0,446.864-247.691,896.545-210.929c270.954,22.151,539.755,367.446,917.816,421.444
		c298.394,42.619,421.823-66.578,617.705-193.622c259.433-168.262,570.364-362.165,906.149-425.894"/>
	<path fill="none" stroke="#7A1416" stroke-width="2.1935" stroke-miterlimit="10" d="M262.309,523.044
		c0,0,443.35-236.526,899.867-187.934c272.96,29.054,544.592,384.649,923.922,434.68c304.619,40.176,427.553-73.553,619.231-205.71
		c249.074-171.73,545.676-366.318,887.326-421.265"/>
	<path fill="none" stroke="#761315" stroke-width="2.2742" stroke-miterlimit="10" d="M258.921,493.387
		c0,0,439.883-225.447,903.189-164.94c274.992,35.914,549.423,401.793,930.028,447.915
		c310.844,37.669,433.374-80.427,620.759-217.797c238.825-175.08,520.987-370.472,868.501-416.637"/>
	<path fill="none" stroke="#731314" stroke-width="2.3548" stroke-miterlimit="10" d="M255.533,463.729
		c0,0,436.463-214.447,906.512-141.947c277.054,42.733,554.245,418.88,936.134,461.15
		c317.066,35.097,439.297-87.202,622.285-229.884c228.697-178.322,496.3-374.625,849.679-412.007"/>
	<path fill="none" stroke="#6F1213" stroke-width="2.4355" stroke-miterlimit="10" d="M252.146,434.071
		c0,0,433.094-203.52,909.835-118.953c279.146,49.517,559.057,435.912,942.239,474.386c323.285,32.46,445.34-93.881,623.813-241.971
		c218.702-181.469,471.61-378.779,830.854-407.379"/>
	<path fill="none" stroke="#6C1113" stroke-width="2.5161" stroke-miterlimit="10" d="M248.758,404.414
		c0,0,429.778-192.661,913.158-95.959c281.271,56.269,563.856,452.895,948.344,487.622
		c329.497,29.761,451.514-100.47,625.34-254.059c208.85-184.535,446.923-382.933,812.031-402.75"/>
	<path fill="none" stroke="#681112" stroke-width="2.5968" stroke-miterlimit="10" d="M245.371,374.756
		c0,0,426.517-181.862,916.481-72.965c283.428,62.993,568.643,469.828,954.45,500.857
		c335.702,26.999,457.833-106.972,626.866-266.146c199.152-187.536,422.234-387.085,793.208-398.122"/>
	<path fill="none" stroke="#651011" stroke-width="2.6774" stroke-miterlimit="10" d="M241.983,345.099
		c0,0,423.311-171.117,919.803-49.971c285.618,69.692,573.414,486.717,960.556,514.092
		c341.9,24.178,464.313-113.396,628.394-278.233c189.616-190.489,397.546-391.239,774.384-393.493"/>
	<path fill="none" stroke="#611010" stroke-width="2.7581" stroke-miterlimit="10" d="M238.596,315.441
		c0,0,420.161-160.423,923.126-26.977c287.841,76.37,578.168,503.562,966.662,527.328
		c348.089,21.293,470.963-119.755,629.92-290.321c180.25-193.414,372.857-395.392,755.561-388.864"/>
	<path fill="none" stroke="#5E0F10" stroke-width="2.8387" stroke-miterlimit="10" d="M235.208,285.784
		c0,0,417.065-149.774,926.449-3.983c290.097,83.029,582.905,520.368,972.768,540.563
		c354.266,18.35,477.795-126.059,631.447-302.409c171.061-196.33,348.169-399.546,736.736-384.235"/>
	<path fill="none" stroke="#5A0F0F" stroke-width="2.9194" stroke-miterlimit="10" d="M231.821,256.125
		c0,0,414.026-139.164,929.771,19.011c292.388,89.673,587.624,537.138,978.874,553.799
		c360.433,15.349,484.818-132.323,632.973-314.496c162.052-199.261,323.481-403.699,717.914-379.606"/>
	<path fill="none" stroke="#570E0E" stroke-width="3" stroke-miterlimit="10" d="M228.434,226.468
		c0,0,411.042-128.59,933.094,42.005c294.708,96.304,592.322,553.87,984.979,567.034c366.588,12.289,492.038-138.561,634.5-326.583
		c153.225-202.226,298.793-407.853,699.09-374.978"/>
</g>
</svg>
